#!OML:ASF F:\VICON\USERDATA\INSTALL\rory3\rory3.ASF
:FULLY-SPECIFIED
:DEGREES
3519
root 13.6334 17.7162 -9.99441 842.953 -84.7929 -1201.6
lowerback 11.2572 2.91619 3.6499
upperback 1.47768 4.30214 1.12032
thorax -4.57011 2.03864 -1.51485
lowerneck -19.3478 -4.48562 -10.7887
upperneck 32.1489 -6.39334 8.13162
head 15.0855 -3.17487 4.01582
rclavicle -2.84759e-014 -1.46604e-014
rhumerus -29.4708 -9.93387 -85.0865
rradius 34.7633
rwrist 1.53082
rhand -18.3704 8.76912
rfingers 7.12502
rthumb 7.91284 -21.0628
lclavicle -2.84759e-014 -1.46604e-014
lhumerus -37.3572 5.79112 82.7103
lradius 30.5868
lwrist -5.70928
lhand -19.4646 25.667
lfingers 7.12502
lthumb 6.85672 55.5359
rfemur 7.72278 2.30492 29.056
rtibia 15.0294
rfoot -18.3804 0.819902
rtoes 8.97686
lfemur -27.5679 -1.51839 -17.6926
ltibia 13.1782
lfoot -8.10184 0.647629
ltoes -29.1834
3520
root 13.5452 17.7057 -9.97282 844.41 -84.9319 -1203.01
lowerback 11.2579 2.93154 3.6598
upperback 1.47739 4.31929 1.01048
thorax -4.56055 2.04696 -1.63697
lowerneck -19.3231 -4.48422 -10.8003
upperneck 32.0524 -6.38499 8.15654
head 15.0355 -3.1666 4.02711
rclavicle -6.82266e-014 -7.05686e-015
rhumerus -29.3292 -9.1555 -85.5102
rradius 34.9779
rwrist 0.524975
rhand -18.892 8.36378
rfingers 7.12502
rthumb 7.40941 -21.4865
lclavicle -6.82266e-014 -7.05686e-015
lhumerus -37.6222 6.55784 82.2744
lradius 30.4077
lwrist -6.09781
lhand -18.9476 25.7252
lfingers 7.12502
lthumb 7.35574 55.5773
rfemur 8.15085 2.11311 28.7339
rtibia 14.7231
rfoot -18.4244 0.984339
rtoes 7.90648
lfemur -27.623 -2.20919 -17.6692
ltibia 13.1237
lfoot -7.70267 1.68732
ltoes -27.341
3521
root 13.4513 17.6897 -9.96809 844.18 -84.7259 -1202.76
lowerback 11.2184 2.98007 3.81472
upperback 1.49416 4.40081 1.05247
thorax -4.5085 2.08572 -1.68771
lowerneck -19.3227 -4.49586 -11.0165
upperneck 32.0156 -6.37982 8.32831
head 15.0349 -3.16681 4.13885
rclavicle 2.96997e-014 5.66536e-015
rhumerus -29.1124 -8.96555 -85.7325
rradius 34.9606
rwrist 0.465659
rhand -18.7596 8.19301
rfingers 7.12502
rthumb 7.53716 -21.6527
lclavicle 2.96997e-014 5.66536e-015
lhumerus -37.8195 7.3407 81.8201
lradius 30.1153
lwrist -6.60035
lhand -16.8409 25.3748
lfingers 7.12502
lthumb 9.38882 55.1456
rfemur 8.59498 2.23938 28.9687
rtibia 14.4781
rfoot -18.4244 0.597013
rtoes 5.60846
lfemur -27.6421 -2.37413 -17.407
ltibia 13.2014
lfoot -7.31556 2.40625
ltoes -26.8801
3522
root 13.3567 17.6742 -9.95992 845.539 -84.689 -1204.02
lowerback 11.0775 3.06593 3.79992
upperback 1.49513 4.50463 0.993589
thorax -4.42019 2.13984 -1.74613
lowerneck -19.3398 -4.50593 -11.1419
upperneck 32.0218 -6.35908 8.36886
head 15.0465 -3.16703 4.18271
rclavicle -2.57426e-014 -6.85807e-015
rhumerus -28.9493 -9.0314 -85.8692
rradius 34.9486
rwrist 0.889588
rhand -18.5733 8.24881
rfingers 7.12502
rthumb 7.71704 -21.5904
lclavicle -2.57426e-014 -6.85807e-015
lhumerus -37.9866 8.02936 81.3596
lradius 29.7422
lwrist -7.10193
lhand -15.801 25.1776
lfingers 7.12502
lthumb 10.3921 54.9008
rfemur 8.86284 2.35801 28.9174
rtibia 14.4249
rfoot -18.4737 0.434407
rtoes 4.46799
lfemur -27.6745 -2.02529 -17.6162
ltibia 13.2751
lfoot -6.91282 2.71158
ltoes -27.401
3523
root 13.2628 17.6569 -9.94374 846.712 -84.7591 -1205.19
lowerback 11.0829 3.1628 3.80588
upperback 1.5055 4.62931 0.891143
thorax -4.39641 2.20172 -1.87273
lowerneck -19.2104 -4.53287 -11.0751
upperneck 31.8626 -6.37536 8.25479
head 14.9379 -3.17814 4.11389
rclavicle -2.8861e-014 1.20265e-014
rhumerus -28.9067 -9.11658 -85.9918
rradius 35.0968
rwrist 0.975651
rhand -18.8828 8.18617
rfingers 7.12502
rthumb 7.41829 -21.6638
lclavicle -2.8861e-014 1.20265e-014
lhumerus -38.1659 8.51179 81.0193
lradius 29.4241
lwrist -7.31552
lhand -16.2387 25.2914
lfingers 7.12502
lthumb 9.96992 55.0353
rfemur 9.23364 2.32645 28.7141
rtibia 14.4109
rfoot -18.5479 0.546789
rtoes 4.80864
lfemur -27.6257 -1.40586 -18.108
ltibia 13.5052
lfoot -6.62745 2.76877
ltoes -28.4711
